<svg xmlns="http://www.w3.org/2000/svg" width="36" height="36.101" viewBox="0 0 36 36.101">
    <g>
        <path fill="none" d="M0 0H36V36H0z" transform="translate(-151 -959) translate(151 959)"/>
        <path fill="#f2eeec" d="M12.041 28.825c0 .145-.167.261-.377.261-.24.022-.406-.094-.406-.261 0-.145.167-.261.377-.261.217-.022.406.094.406.261zM9.784 28.5c-.051.145.094.312.312.356a.34.34 0 0 0 .45-.145c.044-.145-.094-.312-.312-.377a.373.373 0 0 0-.45.166zm3.208-.123c-.21.051-.356.189-.334.356.022.145.21.24.428.189s.356-.189.334-.334-.22-.234-.428-.213zM17.768.563A17.4 17.4 0 0 0 0 18.272a18.2 18.2 0 0 0 12.3 17.361c.929.167 1.256-.406 1.256-.878 0-.45-.022-2.932-.022-4.456 0 0-5.081 1.089-6.148-2.163 0 0-.827-2.112-2.018-2.656 0 0-1.662-1.14.116-1.118a3.831 3.831 0 0 1 2.8 1.873 3.837 3.837 0 0 0 5.291 1.517 4.034 4.034 0 0 1 1.161-2.446c-4.057-.45-8.151-1.038-8.151-8.02A5.5 5.5 0 0 1 8.3 13.01a6.858 6.858 0 0 1 .189-4.928c1.517-.472 5.008 1.96 5.008 1.96a17.147 17.147 0 0 1 9.116 0s3.491-2.439 5.008-1.96a6.854 6.854 0 0 1 .189 4.928 5.642 5.642 0 0 1 1.873 4.275c0 7-4.275 7.563-8.332 8.02a4.292 4.292 0 0 1 1.234 3.368c0 2.446-.022 5.473-.022 6.068 0 .472.334 1.045 1.256.878A18.029 18.029 0 0 0 36 18.272C36 8.205 27.835.563 17.768.563zM7.055 25.6c-.094.073-.073.24.051.377.116.116.283.167.377.073.094-.073.073-.24-.051-.377-.116-.121-.283-.173-.377-.073zm-.784-.588c-.051.094.022.21.167.283a.216.216 0 0 0 .312-.051c.051-.094-.022-.21-.167-.283-.145-.048-.261-.026-.312.047zm2.352 2.584c-.116.094-.073.312.094.45.167.167.377.189.472.073.094-.094.051-.312-.094-.45-.16-.169-.378-.194-.472-.077zM7.8 26.525c-.116.073-.116.261 0 .428s.312.24.406.167a.331.331 0 0 0 0-.45c-.106-.17-.295-.24-.406-.145z" transform="translate(-151 -959) translate(151 959.438)"/>
    </g>
</svg>
