<svg xmlns="http://www.w3.org/2000/svg" width="36" height="36" viewBox="0 0 36 36">
    <g>
        <path fill="#f2eeec" d="M0 2.25v28h28v-28zm23.263 6.631l-1.5 1.438a.44.44 0 0 0-.169.419v10.581a.43.43 0 0 0 .169.419l1.469 1.438v.319h-7.376v-.306l1.519-1.475c.15-.15.15-.194.15-.419v-8.557L13.3 23.463h-.569L7.813 12.738v7.187a.988.988 0 0 0 .275.825l1.975 2.394v.319H4.45v-.319l1.975-2.394a.957.957 0 0 0 .256-.825v-8.312A.714.714 0 0 0 6.444 11L4.688 8.881v-.318h5.456l4.212 9.25 3.706-9.244h5.2z" transform="translate(-276 -959) translate(280 960.75)"/>
    </g>
</svg>
