<svg xmlns="http://www.w3.org/2000/svg" width="36" height="36" viewBox="0 0 36 36">
    <g>
        <path fill="none" d="M0 0H36V36H0z" transform="translate(-215 -959) translate(215 959)"/>
        <path fill="#f2eeec" d="M36.3 8.461a4.523 4.523 0 0 0-3.183-3.2C30.307 4.5 19.05 4.5 19.05 4.5s-11.257 0-14.065.757A4.524 4.524 0 0 0 1.8 8.461c-.752 2.826-.752 8.721-.752 8.721s0 5.9.752 8.721a4.456 4.456 0 0 0 3.183 3.152c2.808.757 14.065.757 14.065.757s11.257 0 14.065-.757A4.456 4.456 0 0 0 36.3 25.9c.752-2.826.752-8.721.752-8.721s0-5.9-.752-8.721zM15.368 22.535V11.829l9.409 5.353-9.409 5.353z" transform="translate(-215 -959) translate(213.95 959.5)"/>
    </g>
</svg>
